<?xml version="1.0" encoding="utf-8"?>
<!-- Generator: Adobe Illustrator 25.0.0, SVG Export Plug-In . SVG Version: 6.00 Build 0)  -->
<svg version="1.1" id="Layer_1" xmlns="http://www.w3.org/2000/svg" xmlns:xlink="http://www.w3.org/1999/xlink" x="0px" y="0px"
	 viewBox="0 0 900 519.6" style="enable-background:new 0 0 900 519.6;" xml:space="preserve">
<style type="text/css">
	.st0{fill:#EF4566;}
	.st1{fill:#8186F1;}
	.st2{clip-path:url(#SVGID_2_);}
	.st3{clip-path:url(#SVGID_4_);}
	.st4{clip-path:url(#SVGID_6_);}
	.st5{clip-path:url(#SVGID_8_);}
</style>
<path class="st0" d="M189.6,370.8v127.4h36.9V370.8H189.6z"/>
<path class="st0" d="M265.4,296.9v201.2h36.9V296.9H265.4z"/>
<path class="st1" d="M443,336.2c9.9,0,19.1,1.7,27.8,5.1c8.6,3.4,17.1,8.8,25.3,16.2l1.4-40.8c-9.4-4.5-18.8-7.8-28.4-10
	s-19.6-3.2-29.9-3.2c-30.7,0-55.8,9.4-75.3,28.2c-19.5,18.8-29.2,42.6-29.2,71.5c0,29,9.7,52.9,29.1,71.7s44.3,28.2,74.6,28.2
	c10.5,0,20.5-1.3,29.9-3.8c9.5-2.5,18.5-6.3,27.2-11.4l0.3-41.7c-8,7.4-16.8,12.9-26.2,16.6c-9.4,3.7-19.7,5.5-30.6,5.5
	c-19.3,0-34.5-5.9-45.7-17.6c-11.1-11.7-16.7-27.6-16.7-47.6c0-20.4,6-36.7,18-48.8C406.6,342.3,422.7,336.2,443,336.2z"/>
<path class="st1" d="M658.7,398.7c-0.8-4.5-2.2-8.5-4.1-12c-3.7-6.8-9-11.8-15.8-15.2c-6.8-3.3-15.1-5-25-5c-9.4,0-18,2-25.6,5.9
	c-7.7,4-15.3,10.4-22.9,19.4c0.5-3.7,0.9-7.5,1.2-11.5c0.3-3.9,0.4-7.9,0.4-11.9v-71.5h-36.2v201.2h37V437c0-8,0.5-13.9,1.5-17.8
	s2.6-7.4,4.9-10.4c2.9-3.9,6.4-6.9,10.7-9s9-3.2,14.1-3.2c8.8,0,15,2.5,18.7,7.5c3.6,5,5.4,15.4,5.4,31v63h37v-78.4
	C659.9,410.2,659.5,403.2,658.7,398.7z"/>
<path class="st1" d="M696.4,406.7v91.5h36.9v-91.5H696.4z"/>
<path class="st1" d="M772.2,331.8v166.3H809V317.2C797.5,323.5,785.2,328.4,772.2,331.8z"/>
<path class="st1" d="M848,288.3v209.8h36.9v-265C876.4,253.9,863.8,272.7,848,288.3z"/>
<g>
	<g>
		<path class="st0" d="M141.2,314.2c1.6-3.3,3.7-6.5,6.3-9.7c2.6-3.1,5.9-4.7,9.8-4.7h0.9v-2.9H37.9l-7.2,29l-0.1,0.6l-3.8,16h2.9
			v-0.9c1.2-3.3,3-5.9,5.4-7.8s4.9-3.2,7.3-4.1c2.4-0.9,4.5-1.4,6.1-1.6s2.3-0.3,1.9-0.3H101L32,481c-1.6,3.3-3.7,6.5-6.3,9.5
			s-5.9,4.5-9.8,4.5H15v2.9h132.5l10.5-45.6h-2.9v0.9c-1.2,3.3-3,5.9-5.4,7.7c-2.5,1.9-4.9,3.2-7.3,4.1c-2.4,0.9-4.5,1.4-6.1,1.6
			c-1.7,0.2-2.3,0.3-1.9,0.3h-62L141.2,314.2z"/>
	</g>
</g>
<g>
	<path class="st1" d="M653.6,153.8c7.8,8.1,18.2,10,26.7,5c-22.6-0.8-31.9-13.8-29.8-32.6C644.3,135.3,645.4,145.2,653.6,153.8z"/>
	<path class="st1" d="M739.8,120.6c0-4.6-3.7-8.3-8.3-8.3s-8.3,3.7-8.3,8.3c0,4.6,3.7,8.3,8.3,8.3
		C736.1,128.8,739.8,125.1,739.8,120.6z"/>
	<path class="st1" d="M753.3,120.6c4.6,0,8.3-3.7,8.3-8.3c0-4.6-3.7-8.3-8.3-8.3s-8.3,3.7-8.3,8.3S748.7,120.6,753.3,120.6z"/>
	<path class="st1" d="M779.8,106.2c0,5.9,5.2,12,10,10.6c0.6-0.2,1.1-0.4,1.7-0.7c5.4-3.1,6.7-10.4,2.9-15.3c-2-2.6-4.6-4-7-3.7
		C782,97.5,779.8,101.1,779.8,106.2z"/>
	<path class="st1" d="M778.4,167.6c3.6,9.2,10.6,13.4,19,12.6c-4.1-4-10.9-7.9-13.3-13.5c-2.4-5.9-0.5-13.5-0.5-19.7
		C777.1,152.1,775.1,159.2,778.4,167.6z"/>
	<path class="st1" d="M795,74.7c-3.1,0.9-6.8,4.7-7.7,7.8c-1.5,5.3,4.2,12,9.2,11.1c0.6-0.1,1.1-0.3,1.7-0.5
		c5.2-2.3,7.2-8.8,4.5-13.9C800.9,75.7,798,73.9,795,74.7z"/>
	<path class="st1" d="M801.2,119.9c-0.4,5.5,4.9,12.1,9.6,11.1c0.6-0.1,1.1-0.3,1.7-0.6c5.2-2.4,7.1-8.8,4.4-13.9
		c-1.8-3.4-4.6-5.4-7.5-5.3C804.1,111.4,801.5,115,801.2,119.9z"/>
	<path class="st1" d="M802.1,139.5c-7.8-0.3-14.6,6.7-14.9,15.3c-0.4,10.9,8.8,21.2,19,21.2c8.5,0,14.2-6.2,14.3-15.4
		C820.6,149.9,811.9,139.9,802.1,139.5z"/>
	<path class="st1" d="M816.3,109.6c0.6-0.1,1.2-0.3,1.7-0.5c5.3-2.3,7.4-8.9,4.6-14c-1.8-3.1-4.6-4.9-7.7-4.9
		c-5.2,0.1-7.5,3.1-7.7,8C806.8,104.3,811.2,110.5,816.3,109.6z"/>
	<path class="st1" d="M884.9,170.7c0,85.2-69.6,154.3-155.4,154.3c-11.1,0-21.9-1.1-32.3-3.4c-59.8,42.4-97.9,17.7-97.9,17.7
		c60.9,10.8,93.8-50.6,97.2-57.3c0.2-0.4,0.3-0.6,0.3-0.6c14-30.4,36.3-50.5,67.7-61.7c19-6.7,37.2-15.5,56.1-22.4
		c10.3-3.8,19.8,1.5,23.5,11.2c-14.8-11.1-18.7-11.4-35.4-1.3c7.9,7.5,14.3,15.2,22.3,20.8c9.2,6.4,19.5,6,24.5-0.7
		c5-6.8,9.6-14.6,11.5-22.7c3.8-16.4-0.1-32.9-7.2-47.5c-12.6-25.9-27.2-50.7-40.4-76.3l0,0c-20.7-38.5-50.8-16.5-75.4,1.6
		c-17.4,12.8-58.4-1.5-90.2,0.2l0,0c-4,0.2-7.8,0.7-11.4,1.5c-0.1,0-0.2,0-0.3,0.1c-6.7,1.3-12.4,3.9-17.3,7.4
		c-0.3,0.2-0.6,0.5-1,0.7c-0.4,0.3-0.9,0.7-1.3,1c-0.9,0.7-1.7,1.5-2.5,2.2c-2.9,2.8-5.5,5.9-7.9,9.4c-0.6,0.9-1.1,1.7-1.7,2.6
		c-28.9,46.9-13.1,144.8-13.1,144.8c-14.9-23.6-23.4-51.6-23.4-81.5c0-85.2,69.6-154.3,155.4-154.3
		C815.3,16.4,884.9,85.5,884.9,170.7z"/>
	<polygon class="st1" points="743.9,169 732.3,174.5 726.8,162.9 710.9,170.4 716.4,182 704.7,187.5 712.3,203.4 723.9,197.9 
		729.4,209.5 745.3,202 739.8,190.4 751.4,184.9 	"/>
</g>
<g>
	<g>
		<defs>
			<circle id="SVGID_1_" cx="208" cy="318.5" r="24.2"/>
		</defs>
		<clipPath id="SVGID_2_">
			<use xlink:href="#SVGID_1_"  style="overflow:visible;"/>
		</clipPath>
		<g class="st2">
			
				<image style="overflow:visible;enable-background:new    ;" width="200" height="200" xlink:href="8CCF84EA.png"  transform="matrix(0.2469 0 0 0.2469 183.3108 293.9493)">
			</image>
		</g>
	</g>
</g>
<g>
	<g>
		<defs>
			<circle id="SVGID_3_" cx="799.7" cy="161.5" r="24.2"/>
		</defs>
		<clipPath id="SVGID_4_">
			<use xlink:href="#SVGID_3_"  style="overflow:visible;"/>
		</clipPath>
		<g class="st3">
			
				<image style="overflow:visible;enable-background:new    ;" width="200" height="200" xlink:href="8CCF84EE.png"  transform="matrix(0.2469 0 0 0.2469 774.9821 136.9609)">
			</image>
		</g>
	</g>
</g>
<g>
	<g>
		<defs>
			<circle id="SVGID_5_" cx="714.8" cy="361.7" r="24.2"/>
		</defs>
		<clipPath id="SVGID_6_">
			<use xlink:href="#SVGID_5_"  style="overflow:visible;"/>
		</clipPath>
		<g class="st4">
			
				<image style="overflow:visible;enable-background:new    ;" width="342" height="341" xlink:href="8CCF84E9.png"  transform="matrix(0.1715 0 0 0.1715 685.342 332.6271)">
			</image>
		</g>
	</g>
</g>
<g>
	<g>
		<defs>
			<circle id="SVGID_7_" cx="670.7" cy="138.7" r="24.2"/>
		</defs>
		<clipPath id="SVGID_8_">
			<use xlink:href="#SVGID_7_"  style="overflow:visible;"/>
		</clipPath>
		<g class="st5">
			
				<image style="overflow:visible;enable-background:new    ;" width="342" height="341" xlink:href="8CCF84EB.png"  transform="matrix(0.1715 0 0 0.1715 641.2319 109.5818)">
			</image>
		</g>
	</g>
</g>
</svg>
